<?xml version="1.0" encoding="iso-8859-1"?>
<!-- Generator: Adobe Illustrator 19.0.0, SVG Export Plug-In . SVG Version: 6.00 Build 0)  -->
<svg version="1.1" id="Layer_1" xmlns="http://www.w3.org/2000/svg" xmlns:xlink="http://www.w3.org/1999/xlink" x="0px" y="0px"
	 viewBox="0 0 512 512" style="enable-background:new 0 0 512 512;" xml:space="preserve">
<g>
	<g>
		<path d="M198.989,178.626c-7.679,0-12.139,3.716-12.139,11.892v35.179c0,8.176,4.458,11.892,12.139,11.892
			c7.68,0,12.388-3.716,12.388-11.892v-35.179C211.377,182.342,206.669,178.626,198.989,178.626z"/>
	</g>
</g>
<g>
	<g>
		<path d="M501.916,226.777c-8.391-10.713-11.189-24.777-7.536-37.886c5.854-21.001-3.378-43.287-22.366-53.998
			c-11.853-6.685-19.82-18.609-21.46-32.118c-2.629-21.643-19.685-38.7-41.328-41.328c-13.509-1.64-25.432-9.608-32.118-21.46
			c-10.711-18.99-32.996-28.22-53.998-22.366c-13.109,3.654-27.173,0.856-37.886-7.536c-17.162-13.445-41.284-13.445-58.447,0
			c-10.712,8.393-24.777,11.189-37.886,7.536c-21.001-5.854-43.287,3.378-53.998,22.366c-6.685,11.853-18.609,19.82-32.119,21.46
			c-21.642,2.629-38.698,19.685-41.327,41.328c-1.64,13.509-9.608,25.432-21.46,32.118c-18.99,10.711-28.22,32.996-22.366,53.998
			c3.654,13.109,0.856,27.173-7.536,37.886c-13.445,17.162-13.445,41.284,0,58.446c8.393,10.713,11.189,24.777,7.536,37.886
			c-5.854,21.001,3.378,43.287,22.366,53.998c11.853,6.685,19.82,18.609,21.46,32.118c2.629,21.643,19.685,38.7,41.328,41.328
			c13.509,1.64,25.432,9.608,32.119,21.46c10.711,18.99,32.996,28.22,53.998,22.366c13.109-3.654,27.173-0.856,37.886,7.536
			c17.162,13.445,41.284,13.445,58.447,0c10.712-8.393,24.777-11.189,37.886-7.536c21.001,5.854,43.287-3.377,53.998-22.366
			c6.685-11.853,18.609-19.82,32.118-21.46c21.643-2.629,38.7-19.685,41.328-41.328c1.64-13.509,9.608-25.432,21.46-32.118
			c18.99-10.711,28.22-32.996,22.366-53.998c-3.654-13.109-0.856-27.173,7.536-37.886
			C515.361,268.06,515.361,243.939,501.916,226.777z M255.999,447.009C150.676,447.009,64.99,361.323,64.99,256
			S150.677,64.992,255.999,64.992s191.009,85.686,191.009,191.009S361.323,447.009,255.999,447.009z"/>
	</g>
</g>
<g>
	<g>
		<path d="M312.701,258.397c-7.679,0-12.14,3.716-12.14,11.892v35.179c0,8.175,4.459,11.892,12.14,11.892
			c7.68,0,12.387-3.716,12.387-11.892v-35.179C325.088,262.114,320.38,258.397,312.701,258.397z"/>
	</g>
</g>
<g>
	<g>
		<path d="M255.999,99.72c-86.173,0-156.281,70.107-156.281,156.281s70.107,156.281,156.281,156.281S412.28,342.174,412.28,256.001
			S342.173,99.72,255.999,99.72z M161.828,225.696v-35.179c0-24.525,16.104-33.444,37.16-33.444c20.81,0,37.161,8.919,37.161,33.444
			v35.179c0,24.527-16.351,33.444-37.161,33.444C177.932,259.14,161.828,250.223,161.828,225.696z M224.754,343.372
			c-1.734,3.716-6.442,6.193-11.148,6.193c-8.424,0-13.874-6.937-13.874-13.13c0-1.487,0.495-3.221,1.239-4.707l86.956-178.619
			c1.982-4.211,5.945-6.193,10.405-6.193c6.937,0,14.616,5.203,14.616,13.13c0,1.486-0.247,3.22-0.991,4.707L224.754,343.372z
			 M349.862,305.468c0,24.526-16.35,33.444-37.16,33.444c-21.058,0-37.16-8.919-37.16-33.444v-35.179
			c0-24.526,16.103-33.444,37.16-33.444c20.81,0,37.16,8.919,37.16,33.444V305.468z"/>
	</g>
</g>
<g>
</g>
<g>
</g>
<g>
</g>
<g>
</g>
<g>
</g>
<g>
</g>
<g>
</g>
<g>
</g>
<g>
</g>
<g>
</g>
<g>
</g>
<g>
</g>
<g>
</g>
<g>
</g>
<g>
</g>
</svg>
